<?xml version="1.0" encoding="UTF-8" standalone="yes"?><svg xmlns="http://www.w3.org/2000/svg" xmlns:xlink="http://www.w3.org/1999/xlink" height="579px" style="width:1500px;height:579px;" version="1.1" viewBox="0 0 1500 579" width="1500px"><defs><filter height="300%" id="f1" width="300%" x="-1" y="-1"><feGaussianBlur result="blurOut" stdDeviation="2.0"/><feColorMatrix in="blurOut" result="blurOut2" type="matrix" values="0 0 0 0 0 0 0 0 0 0 0 0 0 0 0 0 0 0 .4 0"/><feOffset dx="4.0" dy="4.0" in="blurOut2" result="blurOut3"/><feBlend in="SourceGraphic" in2="blurOut3" mode="normal"/></filter></defs><g><polygon fill="#FFFFFF" filter="url(#f1)" points="22,180,58,180,65,202.4883,1493,202.4883,1493,572,22,572,22,180" style="stroke: #000000; stroke-width: 2.0;"/><line style="stroke: #000000; stroke-width: 2.0;" x1="22" x2="65" y1="202.4883" y2="202.4883"/><text fill="#000000" font-family="sans-serif" font-size="14" font-weight="bold" lengthAdjust="spacingAndGlyphs" textLength="30" x="26" y="195.5352">ESXi</text><rect fill="#FEFECE" filter="url(#f1)" height="193.3711" style="stroke: #A80036; stroke-width: 1.5;" width="314" x="38" y="234"/><text fill="#000000" font-family="sans-serif" font-size="12" font-style="italic" lengthAdjust="spacingAndGlyphs" textLength="30" x="180" y="245.6016">«VM»</text><text fill="#000000" font-family="sans-serif" font-size="12" lengthAdjust="spacingAndGlyphs" textLength="35" x="177.5" y="261.7344">Revue</text><line style="stroke: #A80036; stroke-width: 1.5;" x1="39" x2="351" y1="266.2656" y2="266.2656"/><text fill="#000000" font-family="sans-serif" font-size="10" lengthAdjust="spacingAndGlyphs" textLength="46" x="44" y="279.9336">80 = http</text><text fill="#000000" font-family="sans-serif" font-size="10" lengthAdjust="spacingAndGlyphs" textLength="57" x="44" y="291.7109">443 = https</text><text fill="#000000" font-family="sans-serif" font-size="10" lengthAdjust="spacingAndGlyphs" textLength="94" x="44" y="303.4883">4200 = ShellinaBox</text><text fill="#000000" font-family="sans-serif" font-size="10" lengthAdjust="spacingAndGlyphs" textLength="166" x="44" y="315.2656">Apache mod_alias = alias_module</text><text fill="#000000" font-family="sans-serif" font-size="10" lengthAdjust="spacingAndGlyphs" textLength="174" x="44" y="327.043">Apache mod_proxy = proxy_module</text><text fill="#000000" font-family="sans-serif" font-size="10" lengthAdjust="spacingAndGlyphs" textLength="224" x="44" y="338.8203">Apache mod_proxy_http = proxy_http_module</text><text fill="#000000" font-family="sans-serif" font-size="10" lengthAdjust="spacingAndGlyphs" textLength="271" x="44" y="350.5977">Apache mod_proxy_connect = = proxy_connect_module</text><text fill="#000000" font-family="sans-serif" font-size="10" lengthAdjust="spacingAndGlyphs" textLength="78" x="44" y="362.375">Apache mod_ssl</text><text fill="#000000" font-family="sans-serif" font-size="10" lengthAdjust="spacingAndGlyphs" textLength="284" x="44" y="374.1523">continua.pluimers.com:443/ = http://192.168.71.46:8080/</text><text fill="#000000" font-family="sans-serif" font-size="10" lengthAdjust="spacingAndGlyphs" textLength="245" x="44" y="385.9297">*.pluimers.com:443/shell = http://localhost:4200/</text><text fill="#000000" font-family="sans-serif" font-size="10" lengthAdjust="spacingAndGlyphs" textLength="277" x="44" y="397.707">*.pluimers.com:443/shell/revue = http://localhost:4200/</text><text fill="#000000" font-family="sans-serif" font-size="10" lengthAdjust="spacingAndGlyphs" textLength="298" x="44" y="409.4844">*.pluimers.com:443/shell/snap = http://192.168.71.80:4200/</text><text fill="#000000" font-family="sans-serif" font-size="10" lengthAdjust="spacingAndGlyphs" textLength="302" x="44" y="421.2617">pcm.pluimers.com =:443 = to be done (proxy connect module)</text><rect fill="#FEFECE" filter="url(#f1)" height="63.8203" style="stroke: #A80036; stroke-width: 1.5;" width="106" x="1150" y="298.5"/><text fill="#000000" font-family="sans-serif" font-size="12" font-style="italic" lengthAdjust="spacingAndGlyphs" textLength="30" x="1188" y="310.1016">«VM»</text><text fill="#000000" font-family="sans-serif" font-size="12" lengthAdjust="spacingAndGlyphs" textLength="37" x="1184.5" y="326.2344">Slave1</text><line style="stroke: #A80036; stroke-width: 1.5;" x1="1151" x2="1255" y1="330.7656" y2="330.7656"/><text fill="#000000" font-family="sans-serif" font-size="10" lengthAdjust="spacingAndGlyphs" textLength="71" x="1156" y="344.4336">Secondary DNS</text><text fill="#000000" font-family="sans-serif" font-size="10" lengthAdjust="spacingAndGlyphs" textLength="94" x="1156" y="356.2109">4200 = ShellinaBox</text><rect fill="#FEFECE" filter="url(#f1)" height="63.8203" style="stroke: #A80036; stroke-width: 1.5;" width="106" x="1009" y="298.5"/><text fill="#000000" font-family="sans-serif" font-size="12" font-style="italic" lengthAdjust="spacingAndGlyphs" textLength="30" x="1047" y="310.1016">«VM»</text><text fill="#000000" font-family="sans-serif" font-size="12" lengthAdjust="spacingAndGlyphs" textLength="37" x="1043.5" y="326.2344">Slave2</text><line style="stroke: #A80036; stroke-width: 1.5;" x1="1010" x2="1114" y1="330.7656" y2="330.7656"/><text fill="#000000" font-family="sans-serif" font-size="10" lengthAdjust="spacingAndGlyphs" textLength="71" x="1015" y="344.4336">Secondary DNS</text><text fill="#000000" font-family="sans-serif" font-size="10" lengthAdjust="spacingAndGlyphs" textLength="94" x="1015" y="356.2109">4200 = ShellinaBox</text><rect fill="#FEFECE" filter="url(#f1)" height="75.5977" style="stroke: #A80036; stroke-width: 1.5;" width="106" x="727" y="292.5"/><text fill="#000000" font-family="sans-serif" font-size="12" font-style="italic" lengthAdjust="spacingAndGlyphs" textLength="30" x="765" y="304.1016">«VM»</text><text fill="#000000" font-family="sans-serif" font-size="12" lengthAdjust="spacingAndGlyphs" textLength="24" x="768" y="320.2344">Snip</text><line style="stroke: #A80036; stroke-width: 1.5;" x1="728" x2="832" y1="324.7656" y2="324.7656"/><text fill="#000000" font-family="sans-serif" font-size="10" lengthAdjust="spacingAndGlyphs" textLength="54" x="733" y="338.4336">Playground</text><text fill="#000000" font-family="sans-serif" font-size="10" lengthAdjust="spacingAndGlyphs" textLength="46" x="733" y="350.2109">80 = http</text><text fill="#000000" font-family="sans-serif" font-size="10" lengthAdjust="spacingAndGlyphs" textLength="94" x="733" y="361.9883">4200 = ShellinaBox</text><rect fill="#FEFECE" filter="url(#f1)" height="75.5977" style="stroke: #A80036; stroke-width: 1.5;" width="106" x="868" y="292.5"/><text fill="#000000" font-family="sans-serif" font-size="12" font-style="italic" lengthAdjust="spacingAndGlyphs" textLength="30" x="906" y="304.1016">«VM»</text><text fill="#000000" font-family="sans-serif" font-size="12" lengthAdjust="spacingAndGlyphs" textLength="28" x="907" y="320.2344">Snap</text><line style="stroke: #A80036; stroke-width: 1.5;" x1="869" x2="973" y1="324.7656" y2="324.7656"/><text fill="#000000" font-family="sans-serif" font-size="10" lengthAdjust="spacingAndGlyphs" textLength="55" x="874" y="338.4336">Primary MX</text><text fill="#000000" font-family="sans-serif" font-size="10" lengthAdjust="spacingAndGlyphs" textLength="46" x="874" y="350.2109">80 = http</text><text fill="#000000" font-family="sans-serif" font-size="10" lengthAdjust="spacingAndGlyphs" textLength="94" x="874" y="361.9883">4200 = shellinabox</text><rect fill="#FEFECE" filter="url(#f1)" height="99.1523" style="stroke: #A80036; stroke-width: 1.5;" width="185" x="1291.5" y="281"/><text fill="#000000" font-family="sans-serif" font-size="12" font-style="italic" lengthAdjust="spacingAndGlyphs" textLength="30" x="1369" y="292.6016">«VM»</text><text fill="#000000" font-family="sans-serif" font-size="12" lengthAdjust="spacingAndGlyphs" textLength="79" x="1344.5" y="308.7344">W81EntX64CI</text><line style="stroke: #A80036; stroke-width: 1.5;" x1="1292.5" x2="1475.5" y1="313.2656" y2="313.2656"/><text fill="#000000" font-family="sans-serif" font-size="10" lengthAdjust="spacingAndGlyphs" textLength="83" x="1297.5" y="326.9336">80 = DefaultHttp</text><text fill="#000000" font-family="sans-serif" font-size="10" lengthAdjust="spacingAndGlyphs" textLength="118" x="1297.5" y="338.7109">8080 = ContinuaCI-web</text><text fill="#000000" font-family="sans-serif" font-size="10" lengthAdjust="spacingAndGlyphs" textLength="173" x="1297.5" y="350.4883">9000 = Continua.Server.Service.exe</text><text fill="#000000" font-family="sans-serif" font-size="10" lengthAdjust="spacingAndGlyphs" textLength="172" x="1297.5" y="362.2656">9002 = Continua.Agent.Service.exe</text><text fill="#000000" font-family="sans-serif" font-size="10" lengthAdjust="spacingAndGlyphs" textLength="130" x="1297.5" y="374.043">9010 = Continua.SSHD.exe</text><rect fill="#FEFECE" filter="url(#f1)" height="52.043" style="stroke: #A80036; stroke-width: 1.5;" width="77" x="952.5" y="504"/><text fill="#000000" font-family="sans-serif" font-size="12" font-style="italic" lengthAdjust="spacingAndGlyphs" textLength="53" x="964.5" y="515.6016">«vSwitch»</text><text fill="#000000" font-family="sans-serif" font-size="12" lengthAdjust="spacingAndGlyphs" textLength="49" x="966.5" y="531.7344">vSwitch7</text><line style="stroke: #A80036; stroke-width: 1.5;" x1="953.5" x2="1028.5" y1="536.2656" y2="536.2656"/><text fill="#000000" font-family="sans-serif" font-size="10" lengthAdjust="spacingAndGlyphs" textLength="65" x="958.5" y="549.9336">Fiber internal</text><path d="M933.939,368.745 C943.967,397.52 958.255,438.323 971,474 C974.487,483.759 978.37,494.4732 981.78,503.8315 " fill="none" style="stroke: #A80036; stroke-width: 1.0; stroke-dasharray: 7.0,7.0;"/><text fill="#000000" font-family="sans-serif" font-size="13" lengthAdjust="spacingAndGlyphs" textLength="28" x="972" y="470.5684">eth0</text><path d="M803.149,368.536 C815.754,387.173 832.357,409.467 850,427 C881.181,457.987 922.466,486.7 952.296,505.7136 " fill="none" style="stroke: #A80036; stroke-width: 1.0; stroke-dasharray: 7.0,7.0;"/><text fill="#000000" font-family="sans-serif" font-size="13" lengthAdjust="spacingAndGlyphs" textLength="28" x="905" y="470.5684">eth0</text><path d="M352.264,370.52 C540.973,417.341 845.341,492.8598 952.319,519.4027 " fill="none" style="stroke: #A80036; stroke-width: 1.0; stroke-dasharray: 7.0,7.0;"/><text fill="#000000" font-family="sans-serif" font-size="13" lengthAdjust="spacingAndGlyphs" textLength="28" x="757" y="470.5684">eth0</text><path d="M1183.79,362.688 C1170.83,382.359 1152.57,407.616 1133,427 C1101.51,458.185 1059.75,486.976 1029.68,505.9603 " fill="none" style="stroke: #A80036; stroke-width: 1.0; stroke-dasharray: 7.0,7.0;"/><text fill="#000000" font-family="sans-serif" font-size="13" lengthAdjust="spacingAndGlyphs" textLength="28" x="1098" y="470.5684">eth0</text><path d="M1050.75,362.794 C1036.71,401.842 1012.98,467.845 1000.057,503.8055 " fill="none" style="stroke: #A80036; stroke-width: 1.0; stroke-dasharray: 7.0,7.0;"/><text fill="#000000" font-family="sans-serif" font-size="13" lengthAdjust="spacingAndGlyphs" textLength="28" x="1016" y="470.5684">eth0</text><path d="M1335.82,380.168 C1317.59,396.66 1295.92,414.141 1274,427 C1192.91,474.559 1085.94,505.6656 1029.58,519.9433 " fill="none" style="stroke: #A80036; stroke-width: 1.0; stroke-dasharray: 7.0,7.0;"/><text fill="#000000" font-family="sans-serif" font-size="13" lengthAdjust="spacingAndGlyphs" textLength="52" x="1208" y="470.5684">Ethernet</text><path d="M352.085,274.237 C452.654,241.257 586.756,202.856 709,186 C833.379,168.849 1161.5,130.252 1274,186 C1311.83,204.747 1340.18,243.421 1358.62,276.044 " fill="none" style="stroke: #0000FF; stroke-width: 1.0;"/><polygon fill="#0000FF" points="1361.27,280.811,1360.3958,271.001,1358.8418,276.4402,1353.4026,274.8862,1361.27,280.811" style="stroke: #0000FF; stroke-width: 1.0;"/><text fill="#0000FF" font-family="sans-serif" font-size="13" lengthAdjust="spacingAndGlyphs" textLength="94" x="1064" y="160.5684">ProxyPass-&gt;CI</text><path d="M352.085,274.237 C452.654,241.257 586.756,202.856 709,186 C802.339,173.129 1053.16,135.963 1133,186 C1170.26,209.351 1188.18,258.789 1196.45,293.299 " fill="none" style="stroke: #0000FF; stroke-width: 1.0;"/><polygon fill="#0000FF" points="1197.6,298.277,1199.4709,288.6075,1196.4742,293.4054,1191.6763,290.4087,1197.6,298.277" style="stroke: #0000FF; stroke-width: 1.0;"/><text fill="#0000FF" font-family="sans-serif" font-size="13" lengthAdjust="spacingAndGlyphs" textLength="154" x="442" y="160.5684">ProxyPass-&gt;shellinabox</text><path d="M352.085,274.237 C452.654,241.257 586.756,202.856 709,186 C833.599,168.819 885.424,119.205 992,186 C1029.26,209.351 1047.18,258.789 1055.45,293.299 " fill="none" style="stroke: #0000FF; stroke-width: 1.0;"/><polygon fill="#0000FF" points="1056.6,298.277,1058.4709,288.6075,1055.4742,293.4054,1050.6763,290.4087,1056.6,298.277" style="stroke: #0000FF; stroke-width: 1.0;"/><text fill="#0000FF" font-family="sans-serif" font-size="13" lengthAdjust="spacingAndGlyphs" textLength="154" x="805" y="160.5684">ProxyPass-&gt;shellinabox</text><path d="M352.085,274.237 C452.654,241.257 586.756,202.856 709,186 C771.079,177.44 796.807,152.869 850,186 C885.39,208.043 903.644,253.457 912.715,287.523 " fill="none" style="stroke: #0000FF; stroke-width: 1.0;"/><polygon fill="#0000FF" points="913.988,292.463,915.6165,282.7497,912.7407,287.6211,907.8694,284.7453,913.988,292.463" style="stroke: #0000FF; stroke-width: 1.0;"/><text fill="#0000FF" font-family="sans-serif" font-size="13" lengthAdjust="spacingAndGlyphs" textLength="154" x="630" y="160.5684">ProxyPass-&gt;shellinabox</text><path d="M352.154,330.5 C474.098,330.5 636.304,330.5 721.708,330.5 " fill="none" style="stroke: #0000FF; stroke-width: 1.0;"/><polygon fill="#0000FF" points="726.719,330.5,717.719,326.5,721.719,330.5,717.719,334.5,726.719,330.5" style="stroke: #0000FF; stroke-width: 1.0;"/><text fill="#0000FF" font-family="sans-serif" font-size="13" lengthAdjust="spacingAndGlyphs" textLength="154" x="462.5" y="324.0684">ProxyPass-&gt;shellinabox</text><path d="M352.067,308.277 C373.054,312.035 387,319.442 387,330.5 C387,340.607 375.348,347.665 357.318,351.674 " fill="none" style="stroke: #0000FF; stroke-width: 1.0;"/><polygon fill="#0000FF" points="352.067,352.723,361.6764,354.8814,356.97,351.743,360.1084,347.0365,352.067,352.723" style="stroke: #0000FF; stroke-width: 1.0;"/><text fill="#0000FF" font-family="sans-serif" font-size="13" lengthAdjust="spacingAndGlyphs" textLength="154" x="393" y="335.5684">ProxyPass-&gt;shellinabox</text></g></svg>